<svg xmlns="http://www.w3.org/2000/svg" xmlns:xlink="http://www.w3.org/1999/xlink" width="54" height="25" viewBox="0 0 54 25">
    <defs>
        <path id="a" d="M.001.249h5.748v7.9H0v-7.9z"/>
    </defs>
    <g fill="none" fill-rule="evenodd">
        <path fill="#ED1C24" d="M29.992 1.115v2.832h-2.37V1.115h-2.38v7.533h2.38v-3.02h2.37v3.02h2.396V1.115zM37.865 4.565c0-1.56-.324-1.906-1.409-1.906h-.607v4.45h.607c1.085 0 1.409-.383 1.409-1.946v-.598zm-1.486 4.216c-1.063 0-1.82-.039-2.84-.134V1.115a29.75 29.75 0 0 1 2.84-.105c2.637 0 3.83.988 3.83 3.555v.598c0 2.6-1.168 3.618-3.83 3.618zM43.521 2.738v1.34h2.868v1.5H43.52v3.07h-2.386V1.114h5.484v1.623z"/>
        <g transform="translate(47.039 .687)">
            <mask id="b" fill="#fff">
                <use xlink:href="#a"/>
            </mask>
            <path fill="#ED1C24" d="M3.558 8.149C1.195 8.149 0 7.307 0 4.539v-.704C.001 1.088 1.195.249 3.558.249c.588 0 1.787.108 2.19.215v1.598a27.998 27.998 0 0 0-1.909-.085c-.957 0-1.434.301-1.434 1.858v.704c0 1.591.477 1.882 1.434 1.882.65 0 1.375-.038 1.91-.083v1.581c-.404.125-1.603.23-2.191.23" mask="url(#b)"/>
        </g>
        <path fill="#005E9D" d="M35.066 14.618c.942 0 1.71-.653 1.71-1.457 0-.808-.768-1.461-1.71-1.461s-1.7.653-1.7 1.461c0 .804.758 1.457 1.7 1.457M32.917 22.154c0-.434-.307-.81-.723-.815-1.085-.018-3.994 0-3.994 0s.035-3.963.033-6.358h.002c.016-.492.027-1.344.02-1.625-.03-.978-1.483-1.295-2.304-1.327-.736-.032-.708.612-.708.612v9.758c0 .64.687.785.687.785h6.996s-.009-.514-.009-1.03"/>
        <path fill="#005E9D" d="M42.636 15.415c-.315-3.354 1.65-3.19 2.376-3.023.275.041.275-.238.275-.321a1.057 1.057 0 0 0-.38-.674c-.701-.588-2.01-.515-2.01-.515-2.388 0-3.188 1.771-3.188 3.22 0 .748-.013 1.38-.013 1.38h-.723c-.411 0-.58.428-.58.652v.53h1.282v3.591c-2.572 2.19-3.156.862-3.156.316v-3.963c0-.967-1.404-1.293-2.234-1.33-.827-.032-.71.617-.71.617v4.87s-.239 2.48 1.877 2.476c2.3-.012 4.266-1.86 4.266-1.86s0 1.326.026 2.325c0 .145.005.265.005.348.05.634.682.557.682.557 2.263 0 2.205-1.607 2.205-1.607v-6.36h1.418c.276 0 .758-.139.758-.672 0-.325-.01-.557-.01-.557h-2.166M53.091 20.993c0-.01-.007-.01-.007-.01-.025-.078-.107-.129-.301 0-.417.276-1.724.795-2.332.913-.614.116-1.603.141-2.294-.296-.683-.428-.823-1.236-.842-1.308a5.405 5.405 0 0 1-.043-.75c0-.7.42-2.406 2.152-2.406 1.553-.03 1.741 2.37-1.53 2.562 0 0 .263.446.45.568.502.34.878.34 1.251.38 1.035.089 3.61-.72 3.43-2.938-.237-2.934-4.532-2.367-5.879-1.819-1.277.514-3.06 1.65-2.885 4.201.197 2.914 3.48 3.18 4.96 3.155.199-.01.378-.023.57-.034v.006c1.868-.164 2.926-1.243 3.164-1.637.117-.194.155-.337.163-.437v-.006s.007-.077-.027-.144"/>
        <path fill="#B01016" d="M22.025 23.043l-6.274-6.263h-9.49V7.292h.002L0 1.027v22.016z"/>
        <path fill="#ED1C24" d="M6.262 7.292h9.489v9.488l6.274 6.263V1.027H0z"/>
    </g>
</svg>
